<svg xmlns="http://www.w3.org/2000/svg" width="1600" height="900" viewBox="0 0 1600 900" role="img" aria-labelledby="cover-title cover-subtitle">
  <title id="cover-title">The Bane of the Gifted</title>
  <desc id="cover-subtitle">Identity in Christ - Find Your Ink by David Adesina</desc>
  <defs>
    <linearGradient id="bg" x1="0" y1="0" x2="1" y2="1">
      <stop offset="0%" stop-color="#0A0A0A" />
      <stop offset="100%" stop-color="#1C1C1C" />
    </linearGradient>
    <radialGradient id="glowA" cx="1" cy="0" r="1">
      <stop offset="0%" stop-color="#4A5A66" stop-opacity="0.50" />
      <stop offset="100%" stop-color="#4A5A66" stop-opacity="0" />
    </radialGradient>
    <radialGradient id="glowB" cx="0.10" cy="0.95" r="1">
      <stop offset="0%" stop-color="#CFCFCF" stop-opacity="0.30" />
      <stop offset="100%" stop-color="#CFCFCF" stop-opacity="0" />
    </radialGradient>
    <linearGradient id="line" x1="0" y1="0" x2="1" y2="0">
      <stop offset="0%" stop-color="#4A5A66" stop-opacity="0.70" />
      <stop offset="100%" stop-color="#CFCFCF" stop-opacity="0.40" />
    </linearGradient>
    <style>
      .category { fill: #CFCFCF; font: 600 26px 'Inter', 'Segoe UI', sans-serif; letter-spacing: 0.18em; text-transform: uppercase; }
      .title { fill: #E8E8E8; font: 700 74px 'Playfair Display', 'Georgia', serif; }
      .meta { fill: #CFCFCF; font: 500 24px 'Inter', 'Segoe UI', sans-serif; letter-spacing: 0.08em; text-transform: uppercase; }
      .brand { fill: #8A8A8A; font: 400 22px 'Inter', 'Segoe UI', sans-serif; }
    </style>
  </defs>

  <rect width="1600" height="900" fill="url(#bg)" />
  <ellipse cx="1420" cy="50" rx="620" ry="620" fill="url(#glowA)" />
  <ellipse cx="120" cy="860" rx="740" ry="520" fill="url(#glowB)" />

  <path d="M96 164 H630" stroke="url(#line)" stroke-width="3" stroke-linecap="round" />
  <text x="96" y="136" class="category">Identity in Christ</text>
  <text x="96" y="390" class="title">The Bane of the Gifted</text>
  <text x="96" y="705" class="meta">FIND YOUR INK  |  ESSAYS BY DAVID ADESINA</text>

  <path d="M1310 620 C1260 510 1315 418 1410 410 C1315 356 1298 250 1390 190" stroke="#CFCFCF" stroke-opacity="0.65" stroke-width="22" fill="none" stroke-linecap="round"/>
  <path d="M1232 655 C1184 603 1204 530 1265 506 C1208 471 1200 420 1245 380" stroke="#4A5A66" stroke-opacity="0.65" stroke-width="16" fill="none" stroke-linecap="round"/>
  <circle cx="1248" cy="360" r="8" fill="#CFCFCF" fill-opacity="0.55" />
  <circle cx="1384" cy="176" r="9" fill="#4A5A66" fill-opacity="0.45" />

  <text x="96" y="842" class="brand">David Adesina</text>
</svg>
