<svg xmlns="http://www.w3.org/2000/svg" width="1600" height="900" viewBox="0 0 1600 900" role="img" aria-labelledby="cover-title cover-subtitle">
  <title id="cover-title">Why Smart Christians Struggle to Feel Their Feelings</title>
  <desc id="cover-subtitle">Emotional Intelligence - Find Your Ink by David Adesina</desc>
  <defs>
    <linearGradient id="bg" x1="0" y1="0" x2="1" y2="1">
      <stop offset="0%" stop-color="#000000" />
      <stop offset="100%" stop-color="#0A0A0A" />
    </linearGradient>
    <radialGradient id="mistA" cx="0.9" cy="0.12" r="0.9">
      <stop offset="0%" stop-color="#4A5A66" stop-opacity="0.58" />
      <stop offset="100%" stop-color="#4A5A66" stop-opacity="0" />
    </radialGradient>
    <radialGradient id="mistB" cx="0.08" cy="0.94" r="0.95">
      <stop offset="0%" stop-color="#CFCFCF" stop-opacity="0.24" />
      <stop offset="100%" stop-color="#CFCFCF" stop-opacity="0" />
    </radialGradient>
    <linearGradient id="line" x1="0" y1="0" x2="1" y2="0">
      <stop offset="0%" stop-color="#4A5A66" stop-opacity="0.88" />
      <stop offset="100%" stop-color="#CFCFCF" stop-opacity="0.52" />
    </linearGradient>
    <style>
      .category { fill: #CFCFCF; font: 600 24px 'Inter', 'Segoe UI', sans-serif; letter-spacing: 0.16em; text-transform: uppercase; }
      .headline { fill: #E8E8E8; font: 700 98px 'Playfair Display', 'Georgia', serif; }
      .subhead { fill: #CFCFCF; font: 500 34px 'Inter', 'Segoe UI', sans-serif; letter-spacing: 0.02em; }
      .meta { fill: #8A8A8A; font: 500 22px 'Inter', 'Segoe UI', sans-serif; letter-spacing: 0.09em; text-transform: uppercase; }
    </style>
  </defs>

  <rect width="1600" height="900" fill="url(#bg)" />
  <ellipse cx="1410" cy="20" rx="690" ry="630" fill="url(#mistA)" />
  <ellipse cx="50" cy="920" rx="770" ry="570" fill="url(#mistB)" />

  <path d="M96 162 H664" stroke="url(#line)" stroke-width="3" stroke-linecap="round" />
  <text x="96" y="128" class="category">Emotional Intelligence</text>

  <text x="96" y="365" class="headline">Smart Faith.</text>
  <text x="96" y="466" class="headline">Honest Feelings.</text>

  <text x="96" y="562" class="subhead">Why many believers struggle to feel</text>

  <path d="M1295 646 C1258 540 1307 440 1400 425 C1313 358 1307 252 1394 194" stroke="#CFCFCF" stroke-opacity="0.56" stroke-width="24" fill="none" stroke-linecap="round"/>
  <path d="M1214 678 C1170 617 1184 545 1249 510 C1198 474 1186 417 1226 374" stroke="#4A5A66" stroke-opacity="0.67" stroke-width="14" fill="none" stroke-linecap="round"/>
  <path d="M1338 724 H1520" stroke="url(#line)" stroke-width="2" stroke-linecap="round" />

  <text x="96" y="838" class="meta">Find Your Ink  |  David Adesina</text>
</svg>
